HIERARCHY
ROOT root
{
	OFFSET	0	13.1	24.9
	CHANNELS 6  Xposition Yposition Zposition Xrotation Yrotation Zrotation
	JOINT spine_1
	{
		OFFSET	0	9.99999	0
		CHANNELS 3  Xrotation Yrotation Zrotation
		JOINT spine_2
		{
			OFFSET	0	112	-10
			CHANNELS 3  Xrotation Yrotation Zrotation
			JOINT spine_3
			{
				OFFSET	0	206.5	19.3
				CHANNELS 3  Xrotation Yrotation Zrotation
				JOINT spine_4
				{
					OFFSET	0	110.4	14.6
					CHANNELS 3  Xrotation Yrotation Zrotation
					JOINT neck_1
					{
						OFFSET	0	71.8	-50.3
						CHANNELS 3  Xrotation Yrotation Zrotation
						JOINT neck_2
						{
							OFFSET	0	86.2	-25.8
							CHANNELS 3  Xrotation Yrotation Zrotation
							JOINT head_ee
							{
								OFFSET	0	179.8	-8.7
								CHANNELS 3  Xrotation Yrotation Zrotation
								End Site
								{
									OFFSET	1	0	0
								}
							}
						}
					}
					JOINT left_clavicle
					{
						OFFSET	-43.2	22.4	-70.8
						CHANNELS 3  Xrotation Yrotation Zrotation
						JOINT left_shoulder
						{
							OFFSET	-93.9	-5.79999	48.7
							CHANNELS 3  Xrotation Yrotation Zrotation
							JOINT left_elbow
							{
								OFFSET	-291.4	-30.8	15.2
								CHANNELS 3  Xrotation Yrotation Zrotation
								JOINT left_lowarm_twist
								{
									OFFSET	-110.7	-3.89999	13.6
									CHANNELS 3  Xrotation Yrotation Zrotation
									JOINT left_hand
									{
										OFFSET	-110.7	-3.89999	13.6
										CHANNELS 3  Xrotation Yrotation Zrotation
										JOINT left_ee
										{
											OFFSET	-80.8	-5.10001	12.1
											CHANNELS 3  Xrotation Yrotation Zrotation
											End Site
											{
												OFFSET	1	0	0
											}
										}
									}
								}
							}
						}
					}
					JOINT right_clavicle
					{
						OFFSET	43.2	22.4	-70.8
						CHANNELS 3  Xrotation Yrotation Zrotation
						JOINT right_shoulder
						{
							OFFSET	93.9	-5.79999	48.7
							CHANNELS 3  Xrotation Yrotation Zrotation
							JOINT right_elbow
							{
								OFFSET	291.4	-30.8	15.2
								CHANNELS 3  Xrotation Yrotation Zrotation
								JOINT right_lowarm_twist
								{
									OFFSET	110.7	-3.89999	13.6
									CHANNELS 3  Xrotation Yrotation Zrotation
									JOINT right_hand
									{
										OFFSET	110.7	-3.89999	13.6
										CHANNELS 3  Xrotation Yrotation Zrotation
										JOINT right_ee
										{
											OFFSET	80.8	-5.10001	12.1
											CHANNELS 3  Xrotation Yrotation Zrotation
											End Site
											{
												OFFSET	1	0	0
											}
										}
									}
								}
							}
						}
					}
				}
			}
		}
	}
	JOINT left_hip
	{
		OFFSET	-82.8	-127.5	0.300001
		CHANNELS 3  Xrotation Yrotation Zrotation
		JOINT left_knee
		{
			OFFSET	-28.2	-396.7	2.2
			CHANNELS 3  Xrotation Yrotation Zrotation
			JOINT left_ankle
			{
				OFFSET	-11.7	-411.3	35.4
				CHANNELS 3  Xrotation Yrotation Zrotation
				JOINT left_toes
				{
					OFFSET	0	-60	-88.6
					CHANNELS 3  Xrotation Yrotation Zrotation
					JOINT left_foot_ee
					{
						OFFSET	-22.5	-16.5	-42.2
						CHANNELS 3  Xrotation Yrotation Zrotation
						End Site
						{
							OFFSET	1	0	0
						}
					}
				}
			}
		}
	}
	JOINT right_hip
	{
		OFFSET	82.8	-127.5	0.300001
		CHANNELS 3  Xrotation Yrotation Zrotation
		JOINT right_knee
		{
			OFFSET	28.2	-396.7	2.2
			CHANNELS 3  Xrotation Yrotation Zrotation
			JOINT right_ankle
			{
				OFFSET	11.7	-411.3	35.4
				CHANNELS 3  Xrotation Yrotation Zrotation
				JOINT right_toes
				{
					OFFSET	0	-60	-88.6
					CHANNELS 3  Xrotation Yrotation Zrotation
					JOINT right_foot_ee
					{
						OFFSET	22.5	-16.5	-42.2
						CHANNELS 3  Xrotation Yrotation Zrotation
						End Site
						{
							OFFSET	1	0	0
						}
					}
				}
			}
		}
	}
}
MOTION
Frames: 9
Frame Time: 0.02
1372.05 701.618 -1475.22 3.20370295006 18.1611590817 0.977845968355 -3.51318 -0.187878 -2.01311 -3.51093 -0.0594242 -2.02098 -3.50577 0.487743 -1.96217 -3.51111 0.1718 -2.01455 -0.0107574 14.7424 3.63279 0.380719 23.3775 5.39196 -0.0 0.0 -0.0 10.1423 -4.7874 20.1214 3.13083 -20.2214 43.6382 4.1198 -63.8764 2.56884 15.9748 0.283688 -2.01433 -1.2559 -0.512146 -8.64657 -0.0 0.0 -0.0 4.25994 7.36118 -7.81979 -17.3307 23.3131 -61.5902 0.478811 13.3435 -0.0560086 20.517 -0.26099 2.59389 -0.289555 -9.05103 -1.89031 0.0 0.0 0.0 -16.6619 -3.62215 6.57873 -7.15973 0.227892 1.07446 38.3134 9.8752 -4.72455 8.7823 -0.0 -0.0 -0.0 0.0 -0.0 25.0663 8.46072 -7.67848 -2.48138 -0.0941852 -0.369132 37.2487 -17.9774 4.72582 38.7568 -0.0 -0.0 0.0 0.0 0.0 
1344.43153825 697.918 -1523.11293638 4.14772223353 21.0622111113 -0.00750358340271 -3.60259 -0.0863205 -1.8374 -3.60071 0.0307528 -1.83917 -3.59928 0.52844 -1.76191 -3.60353 0.243596 -1.82323 1.32987 14.6892 1.26127 1.86808 24.9446 2.58726 -0.0 0.0 -0.0 10.1578 -4.78761 20.1544 -1.62755 -19.0356 45.216 4.21002 -64.363 2.65001 13.4422 0.27638 -1.69096 -0.924895 -1.2159 -6.72307 -0.0 0.0 -0.0 4.55621 7.17439 -8.43855 -16.1858 23.6084 -62.0539 0.507211 14.1042 -0.0627464 19.4286 -0.270614 2.45521 -0.325027 -8.10509 -1.26573 0.0 0.0 0.0 -17.76 -5.2977 6.48949 -8.9872 0.264402 1.3525 38.0549 7.18119 -4.68816 9.20296 -0.0 -0.0 -0.0 0.0 -0.0 22.7076 8.71527 -7.00709 -6.29588 -0.207549 -0.943457 36.3038 -18.1061 4.63564 40.1219 -0.0 -0.0 0.0 0.0 0.0 
1331.95294873 696.024 -1551.09403089 4.61565144954 22.660220478 -0.209672668925 -3.50876 -0.13056 -1.78105 -3.507 -0.0169812 -1.78575 -3.50414 0.465114 -1.72422 -3.50824 0.187014 -1.77601 1.58932 14.6427 0.361529 2.18841 25.5561 1.54178 -0.0 0.0 -0.0 9.9379 -4.26362 19.6747 -3.4732 -19.0348 46.4527 3.71463 -61.4622 2.20881 12.1494 0.267141 -1.52609 -0.813722 -1.47586 -6.0875 -0.0 0.0 -0.0 4.57802 6.92442 -8.49791 -13.8715 24.4919 -62.4823 0.445795 12.4532 -0.0486384 18.6843 -0.275677 2.36027 -0.437508 -7.74094 -0.383715 0.0 0.0 0.0 -18.3678 -6.54822 5.99803 -11.6484 0.301669 1.75911 38.7406 5.29038 -4.74713 10.4039 -0.0 -0.0 -0.0 0.0 -0.0 21.576 9.61281 -7.46135 -8.72623 -0.259732 -1.31273 35.5862 -18.0674 4.56348 39.9538 -0.0 -0.0 0.0 0.0 0.0 
1332.79272285 696.024 -1551.53191437 4.5947828018 22.0299429285 -0.154782590291 -3.50876 -0.13056 -1.78105 -3.507 -0.0169812 -1.78575 -3.50414 0.465114 -1.72422 -3.50824 0.187014 -1.77601 1.58932 14.6427 0.361529 2.18841 25.5561 1.54178 -0.0 0.0 -0.0 9.9379 -4.26362 19.6747 -3.4732 -19.0348 46.4527 3.71463 -61.4622 2.20881 12.1494 0.267141 -1.52609 -0.813722 -1.47586 -6.0875 -0.0 0.0 -0.0 4.57802 6.92442 -8.49791 -13.8715 24.4919 -62.4823 0.445795 12.4532 -0.0486384 18.6843 -0.275677 2.36027 -0.437508 -7.74094 -0.383715 0.0 0.0 0.0 -18.3678 -6.54822 5.99803 -11.6484 0.301669 1.75911 38.7406 5.29038 -4.74713 10.4039 -0.0 -0.0 -0.0 0.0 -0.0 21.576 9.61281 -7.46135 -8.72623 -0.259732 -1.31273 35.5862 -18.0674 4.56348 39.9538 -0.0 -0.0 0.0 0.0 0.0 
1300.71391374 705.762 -1605.52979488 7.06983884843 26.6179844932 -1.81133603892 -3.5953 -0.0297771 -1.46453 -3.59411 0.0634649 -1.46346 -3.59426 0.45786 -1.39145 -3.59689 0.232384 -1.44628 2.54688 14.338 -1.21851 3.2855 26.1561 -0.425812 -0.0 0.0 -0.0 9.82905 -3.90168 19.436 -9.11441 -16.7215 49.2517 2.92571 -55.384 1.53575 10.1126 0.245047 -1.26688 -0.745967 -0.860447 -5.36279 -0.0 0.0 -0.0 5.18329 5.23642 -9.8203 -10.0623 25.827 -63.6477 0.375603 10.5403 -0.0346463 17.9832 -0.279319 2.2708 -0.75787 -7.29618 1.88629 0.0 0.0 0.0 -15.3306 -9.21698 5.40687 -20.0909 0.294548 3.05326 40.1329 3.39161 -4.87107 11.9106 -0.0 -0.0 -0.0 0.0 -0.0 16.1355 11.3387 -7.11664 -11.2833 -0.297674 -1.70323 36.1159 -18.1553 4.61791 38.7568 -0.0 -0.0 0.0 0.0 0.0 
1303.16421009 705.762 -1606.8415324 7.00553546466 25.5541184993 -1.66510546889 -3.5953 -0.0297771 -1.46453 -3.59411 0.0634649 -1.46346 -3.59426 0.45786 -1.39145 -3.59689 0.232384 -1.44628 2.54688 14.338 -1.21851 3.2855 26.1561 -0.425812 -0.0 0.0 -0.0 9.82905 -3.90168 19.436 -9.11441 -16.7215 49.2517 2.92571 -55.384 1.53575 10.1126 0.245047 -1.26688 -0.745967 -0.860447 -5.36279 -0.0 0.0 -0.0 5.18329 5.23642 -9.8203 -10.0623 25.827 -63.6477 0.375603 10.5403 -0.0346463 17.9832 -0.279319 2.2708 -0.75787 -7.29618 1.88629 0.0 0.0 0.0 -15.3306 -9.21698 5.40687 -20.0909 0.294548 3.05326 40.1329 3.39161 -4.87107 11.9106 -0.0 -0.0 -0.0 0.0 -0.0 16.1355 11.3387 -7.11664 -11.2833 -0.297674 -1.70323 36.1159 -18.1553 4.61791 38.7568 -0.0 -0.0 0.0 0.0 0.0 
1267.56650036 707.519 -1641.6990208 8.76393223142 30.4028671427 -3.71495276599 -3.41908 -0.123648 -1.38898 -3.41801 -0.0350216 -1.39403 -3.41574 0.339994 -1.3524 -3.41827 0.122163 -1.38911 3.20144 14.053 -1.38843 3.963 25.6825 -0.754742 -0.0 0.0 -0.0 9.62977 -3.35061 19.0032 -12.9246 -16.0407 52.4811 2.17922 -47.1839 0.951808 8.74603 0.225062 -1.09347 -0.618046 0.171449 -4.05632 -0.0 0.0 -0.0 5.82177 5.29095 -11.1184 -6.72523 26.8054 -62.9485 0.376198 10.5566 -0.0347553 17.7865 -0.280144 2.24568 -0.909297 -7.08764 2.96259 0.0 0.0 0.0 -13.3046 -10.7928 5.24967 -27.5654 0.12959 4.18762 39.8457 1.67412 -4.85246 12.9352 -0.0 -0.0 -0.0 0.0 -0.0 12.1446 12.4561 -6.01734 -11.7688 -0.302907 -1.77754 33.9805 -18.4598 4.4066 37.493 -0.0 -0.0 0.0 0.0 0.0 
1253.61610545 714.998 -1666.19435719 9.2642715891 32.2374426713 -4.2741977261 -3.33203 -0.0462715 -1.31839 -3.33106 0.0377075 -1.31866 -3.33077 0.387995 -1.26086 -3.33294 0.184014 -1.30631 2.74186 14.2994 -0.0883926 3.40079 25.1032 0.81501 -0.0 0.0 -0.0 9.56458 -3.94948 18.8784 -15.9452 -14.4389 53.1247 1.79862 -41.6967 0.685018 8.56959 0.222181 -1.07111 -0.651138 0.0686576 -4.3224 -0.0 0.0 -0.0 6.17475 6.24505 -11.8073 -4.63554 27.4103 -63.4039 0.365078 10.2513 -0.0327472 18.0112 -0.279195 2.27437 -0.963141 -8.09148 2.86999 0.0 0.0 0.0 -11.9511 -12.4108 4.70837 -31.6651 -0.023307 4.79809 39.2757 2.61429 -4.79888 13.1324 -0.0 -0.0 -0.0 0.0 -0.0 9.81242 12.5415 -6.43187 -11.7256 -0.302467 -1.77093 32.9327 -18.6221 4.29969 37.2215 -0.0 -0.0 0.0 0.0 0.0 
1261.06933871 714.998 -1670.61980886 9.05165401294 30.0553855892 -3.86320131069 -3.33203 -0.0462715 -1.31839 -3.33106 0.0377075 -1.31866 -3.33077 0.387995 -1.26086 -3.33294 0.184014 -1.30631 2.74186 14.2994 -0.0883926 3.40079 25.1032 0.81501 -0.0 0.0 -0.0 9.56458 -3.94948 18.8784 -15.9452 -14.4389 53.1247 1.79862 -41.6967 0.685018 8.56959 0.222181 -1.07111 -0.651138 0.0686576 -4.3224 -0.0 0.0 -0.0 6.17475 6.24505 -11.8073 -4.63554 27.4103 -63.4039 0.365078 10.2513 -0.0327472 18.0112 -0.279195 2.27437 -0.963141 -8.09148 2.86999 0.0 0.0 0.0 -11.9511 -12.4108 4.70837 -31.6651 -0.023307 4.79809 39.2757 2.61429 -4.79888 13.1324 -0.0 -0.0 -0.0 0.0 -0.0 9.81242 12.5415 -6.43187 -11.7256 -0.302467 -1.77093 32.9327 -18.6221 4.29969 37.2215 -0.0 -0.0 0.0 0.0 0.0 
